#N canvas 0 80 1920 1000 12;
#X obj 30 564 dac~;
#X obj 32 31 tgl 15 0 empty empty on/off 0 -12 0 10 -262144 -1 -1 1
1;
#X obj 32 56 metro 450;
#X floatatom 92 29 5 0 0 1 time - -;
#X obj 32 86 s kick;
#X obj 31 152 r kick;
#X obj 31 178 bng 15 250 50 0 empty empty empty 17 7 0 10 -262144 -1
-1;
#N canvas 0 80 1920 1000 kick 0;
#X obj 117 385 phasor~;
#X obj 117 410 expr~ $v1 > 0.5;
#X obj 320 508 *~;
#N canvas 94 211 923 540 vol_env 0;
#X obj 230 334 *~;
#X obj 231 299 vline~;
#X msg 231 269 0.5 \, 1 5 \, 0.5 60 5 \, 0 \$1 65;
#X obj 231 239 inlet;
#X obj 230 370 outlet~;
#X connect 0 0 4 0;
#X connect 1 0 0 0;
#X connect 1 0 0 1;
#X connect 2 0 1 0;
#X connect 3 0 2 0;
#X restore 132 142 pd vol_env;
#N canvas 94 211 923 540 pitch_env 0;
#X obj 36 114 *~;
#X obj 37 79 vline~;
#X obj 37 19 inlet;
#X obj 37 225 outlet~;
#X msg 37 49 1 \, 0.5 5 \, 0 \$1 5;
#X obj 37 143 *~ 80;
#X obj 37 168 +~ 29;
#X obj 37 194 mtof~;
#X connect 0 0 5 0;
#X connect 1 0 0 0;
#X connect 1 0 0 1;
#X connect 2 0 4 0;
#X connect 4 0 1 0;
#X connect 5 0 6 0;
#X connect 6 0 7 0;
#X connect 7 0 3 0;
#X restore 117 170 pd pitch_env;
#X obj 117 111 f 250;
#X floatatom 149 81 5 0 0 0 - - -;
#X obj 116 356 *~ 1;
#X obj 144 330 hsl 128 15 0 3 0 0 empty empty pitch 99 8 0 10 -262144
-1 -1 6200 1;
#X obj 117 489 vcf~ 0.5;
#X obj 148 257 *~ 1.5;
#X obj 190 233 hsl 128 15 0 10 0 0 empty empty lpf 110 8 0 10 -262144
-1 -1 3000 1;
#X obj 117 441 noise~;
#X obj 319 406 osc~;
#X obj 319 375 *~ 1;
#X obj 347 349 hsl 128 15 0 3 0 0 empty empty sine 104 8 0 10 -262144
-1 -1 4100 1;
#X obj 149 55 inlet;
#X obj 141 302 inlet;
#X obj 187 207 inlet;
#X obj 344 318 inlet;
#X obj 319 652 outlet~;
#X obj 117 25 inlet;
#X obj 320 594 *~;
#X obj 319 624 expr~ tanh ($v1);
#X obj 341 570 hsl 128 15 0 10 0 0 empty empty drive 99 8 0 10 -262144
-1 -1 3070 1;
#X obj 338 540 inlet;
#X connect 0 0 1 0;
#X connect 1 0 9 0;
#X connect 2 0 22 0;
#X connect 3 0 2 1;
#X connect 4 0 7 0;
#X connect 4 0 10 0;
#X connect 5 0 4 0;
#X connect 5 0 3 0;
#X connect 6 0 5 1;
#X connect 7 0 0 0;
#X connect 7 0 14 0;
#X connect 8 0 7 1;
#X connect 9 1 2 0;
#X connect 10 0 9 1;
#X connect 11 0 10 1;
#X connect 12 0 9 0;
#X connect 13 0 2 0;
#X connect 14 0 13 0;
#X connect 15 0 14 1;
#X connect 16 0 6 0;
#X connect 17 0 8 0;
#X connect 18 0 11 0;
#X connect 19 0 15 0;
#X connect 21 0 5 0;
#X connect 22 0 23 0;
#X connect 23 0 20 0;
#X connect 24 0 22 1;
#X connect 25 0 24 0;
#X restore 31 325 pd kick;
#X f 10;
#X obj 47 203 hsl 128 15 0 3 0 0 empty empty pitch 99 8 0 10 -262144
-1 -1 6200 1;
#X obj 74 248 hsl 128 15 0 10 0 0 empty empty lpf 110 8 0 10 -262144
-1 -1 3000 1;
#X obj 101 291 hsl 128 15 0 3 0 0 empty empty sine 105 8 0 10 -262144
-1 -1 4100 1;
#X obj 60 224 hsl 128 15 0 1000 0 0 empty empty decay 99 8 0 10 -262144
-1 -1 800 1;
#X obj 30 516 *~;
#X obj 48 373 vsl 15 128 0 1 0 0 empty empty volume 0 -9 0 10 -262144
-1 -1 3000 1;
#X obj 87 269 hsl 128 15 1 10 0 0 empty empty drive 99 8 0 10 -262144
-1 -1 2000 1;
#X connect 1 0 2 0;
#X connect 2 0 4 0;
#X connect 3 0 2 1;
#X connect 5 0 6 0;
#X connect 6 0 7 0;
#X connect 7 0 12 0;
#X connect 8 0 7 1;
#X connect 9 0 7 3;
#X connect 10 0 7 5;
#X connect 11 0 7 2;
#X connect 12 0 0 0;
#X connect 12 0 0 1;
#X connect 13 0 12 1;
#X connect 14 0 7 4;
