#N canvas -9 28 1438 797 12;
#X declare -path ./instruments;
#X obj 11 14 declare -path ./instruments;
#X obj 24 444 heavybass~;
#X obj 16 610 dac~;
#X obj 25 571 *~ 0.5;
#X obj 22 56 tgl 15 0 empty empty empty 17 7 0 10 #fcfcfc #000000 #000000
0 1;
#X obj 23 396 mseq;
#X obj 63 315 bng 15 250 50 0 empty empty empty 17 7 0 10 #fcfcfc #000000
#000000;
#X obj 64 342 randseq, f 24;
#X text 82 308 generate the sequence;
#X obj 63 370 print;
#X obj 23 421 + 30;
#X obj 347 305 pdcontrol;
#X msg 347 277 dir;
#X obj 346 253 bng 15 250 50 0 empty empty empty 17 7 0 10 #fcfcfc
#000000 #000000;
#X obj 320 363 playdir~;
#X msg 347 336 \$1/sounds/hihats;
#X obj 586 327 pdcontrol;
#X msg 586 299 dir;
#X obj 585 275 bng 15 250 50 0 empty empty empty 17 7 0 10 #fcfcfc
#000000 #000000;
#X obj 559 385 playdir~;
#X msg 586 358 \$1/sounds/kicks;
#X obj 766 357 pdcontrol;
#X msg 766 329 dir;
#X obj 765 305 bng 15 250 50 0 empty empty empty 17 7 0 10 #fcfcfc
#000000 #000000;
#X obj 739 415 playdir~;
#X msg 766 388 \$1/sounds/snares;
#X obj 373 112 mseq;
#X obj 373 137 b;
#X obj 858 345 b;
#X obj 642 254 mseq;
#X obj 642 279 b;
#X msg 668 226 1 - - - 1 - - - - - 1 - - - - -;
#X msg 884 292 - - - - 1 - - - - - - - 1 - - -;
#X obj 858 320 mseq;
#X msg 399 84 1 - - -;
#X obj 24 80 metro 80;
#X obj 593 52 loadbang;
#X msg 174 271 11;
#X msg 118 270 2;
#X obj 867 484 random 100;
#X obj 867 509 > 90;
#X obj 867 534 sel 1;
#X obj 24 469 *~ 0.33;
#X connect 1 0 42 0;
#X connect 3 0 2 0;
#X connect 3 0 2 1;
#X connect 4 0 35 0;
#X connect 5 0 10 0;
#X connect 6 0 7 0;
#X connect 7 0 9 0;
#X connect 7 0 5 1;
#X connect 10 0 1 0;
#X connect 11 0 15 0;
#X connect 12 0 11 0;
#X connect 13 0 12 0;
#X connect 14 0 3 0;
#X connect 15 0 14 1;
#X connect 16 0 20 0;
#X connect 17 0 16 0;
#X connect 18 0 17 0;
#X connect 19 0 3 0;
#X connect 20 0 19 1;
#X connect 21 0 25 0;
#X connect 22 0 21 0;
#X connect 23 0 22 0;
#X connect 24 0 3 0;
#X connect 25 0 24 1;
#X connect 26 0 27 0;
#X connect 27 0 14 2;
#X connect 28 0 24 0;
#X connect 29 0 30 0;
#X connect 30 0 19 0;
#X connect 31 0 29 1;
#X connect 32 0 33 1;
#X connect 33 0 28 0;
#X connect 33 1 39 0;
#X connect 34 0 26 1;
#X connect 35 0 29 0;
#X connect 35 0 26 0;
#X connect 35 0 33 0;
#X connect 35 0 5 0;
#X connect 36 0 31 0;
#X connect 36 0 32 0;
#X connect 36 0 34 0;
#X connect 36 0 13 0;
#X connect 36 0 18 0;
#X connect 36 0 23 0;
#X connect 36 0 37 0;
#X connect 36 0 38 0;
#X connect 36 0 6 0;
#X connect 37 0 7 2;
#X connect 38 0 7 1;
#X connect 39 0 40 0;
#X connect 40 0 41 0;
#X connect 41 0 6 0;
#X connect 42 0 3 0;
