#N canvas 0 0 1438 797 12;
#X declare -path ./instruments;
#X obj 11 14 declare -path ./instruments;
#X obj 22 553 heavybass~, f 23;
#X obj 14 719 dac~;
#X obj 23 680 *~ 0.5;
#X obj 22 56 tgl 15 0 empty empty empty 17 7 0 10 #fcfcfc #000000 #000000
0 1;
#X obj 23 396 mseq;
#X obj 63 315 bng 15 250 50 0 empty empty empty 17 7 0 10 #fcfcfc #000000
#000000;
#X obj 64 342 randseq, f 24;
#X text 82 308 generate the sequence;
#X obj 63 370 print;
#X obj 23 421 + 30;
#X obj 626 294 pdcontrol;
#X msg 626 266 dir;
#X obj 617 241 bng 15 250 50 0 empty empty empty 17 7 0 10 #fcfcfc
#000000 #000000;
#X obj 599 352 playdir~;
#X msg 626 325 \$1/sounds/hihats;
#X obj 865 316 pdcontrol;
#X msg 865 288 dir;
#X obj 864 264 bng 15 250 50 0 empty empty empty 17 7 0 10 #fcfcfc
#000000 #000000;
#X obj 838 374 playdir~;
#X msg 865 347 \$1/sounds/kicks;
#X obj 1066 500 pdcontrol;
#X msg 1066 472 dir;
#X obj 1065 448 bng 15 250 50 0 empty empty empty 17 7 0 10 #fcfcfc
#000000 #000000;
#X obj 1039 558 playdir~;
#X msg 1066 531 \$1/sounds/snares;
#X obj 652 101 mseq;
#X obj 652 126 b;
#X obj 1158 488 b;
#X obj 921 243 mseq;
#X obj 921 268 b;
#X msg 947 215 1 - - - 1 - - - - - 1 - - - - -;
#X msg 1184 435 - - - - 1 - - - - - - - 1 - - -;
#X obj 1158 463 mseq;
#X obj 24 80 metro 80;
#X obj 1201 514 random 100;
#X obj 1201 564 sel 1;
#X msg 170 682 start;
#X msg 177 710 stop;
#X obj 135 758 writesf~ 2, f 11;
#X msg 137 654 open ./m-onz-algo-dnb-example.wav;
#X obj 119 285 unpack 0 0 0, f 17;
#X obj 115 225 loadbang;
#X obj 27 650 catch~ example;
#X obj 592 376 throw~ example;
#X obj 835 404 throw~ example;
#X obj 1038 588 throw~ example;
#X obj 1201 592 s newSequence;
#X obj 63 189 r newSequence;
#X obj 1201 539 > 70;
#X obj 628 623 mseq;
#X obj 676 563 bng 15 250 50 0 empty empty empty 17 7 0 10 #fcfcfc
#000000 #000000;
#X obj 677 590 randseq, f 24;
#X text 695 556 generate the sequence;
#X obj 676 618 print;
#X obj 628 648 + 30;
#X obj 732 533 unpack 0 0 0, f 17;
#X obj 728 473 loadbang;
#X obj 676 437 r newSequence;
#X msg 118 254 7 2 32;
#X msg 731 502 7 11 64;
#X obj 1182 407 loadbang;
#X obj 678 50 loadbang;
#X obj 950 182 loadbang;
#X obj 21 106 s pulse;
#X obj 652 14 r pulse;
#X obj 920 117 r pulse;
#X obj 1159 375 r pulse;
#X obj 22 578 *~ 0.73;
#X floatatom 74 528 5 0 0 0 - - - 0;
#X floatatom 128 527 5 0 0 0 - - - 0;
#X floatatom 178 529 5 0 0 0 - - - 0;
#X obj 85 464 random 200;
#X obj 86 415 r newSequence;
#X obj 86 440 b;
#X obj 164 463 random 200;
#X obj 243 462 random 200;
#X obj 598 591 r pulse;
#X obj 5 345 r pulse;
#X msg 678 73 1 - 1 -;
#X connect 1 0 68 0;
#X connect 3 0 2 0;
#X connect 3 0 2 1;
#X connect 3 0 39 0;
#X connect 3 0 39 1;
#X connect 4 0 34 0;
#X connect 5 0 10 0;
#X connect 6 0 7 0;
#X connect 7 0 9 0;
#X connect 7 0 5 1;
#X connect 10 0 1 0;
#X connect 11 0 15 0;
#X connect 12 0 11 0;
#X connect 13 0 12 0;
#X connect 14 0 44 0;
#X connect 15 0 14 1;
#X connect 16 0 20 0;
#X connect 17 0 16 0;
#X connect 18 0 17 0;
#X connect 19 0 45 0;
#X connect 20 0 19 1;
#X connect 21 0 25 0;
#X connect 22 0 21 0;
#X connect 23 0 22 0;
#X connect 24 0 46 0;
#X connect 25 0 24 1;
#X connect 26 0 27 0;
#X connect 27 0 14 2;
#X connect 28 0 24 0;
#X connect 29 0 30 0;
#X connect 30 0 19 0;
#X connect 31 0 29 1;
#X connect 32 0 33 1;
#X connect 33 0 28 0;
#X connect 33 1 35 0;
#X connect 34 0 64 0;
#X connect 35 0 49 0;
#X connect 36 0 47 0;
#X connect 37 0 39 0;
#X connect 38 0 39 0;
#X connect 40 0 39 0;
#X connect 41 0 7 1;
#X connect 41 1 7 2;
#X connect 41 2 7 3;
#X connect 42 0 59 0;
#X connect 43 0 3 0;
#X connect 48 0 6 0;
#X connect 49 0 36 0;
#X connect 50 0 55 0;
#X connect 51 0 52 0;
#X connect 52 0 54 0;
#X connect 52 0 50 1;
#X connect 55 0 1 0;
#X connect 56 0 52 1;
#X connect 56 1 52 2;
#X connect 56 2 52 3;
#X connect 57 0 60 0;
#X connect 58 0 51 0;
#X connect 59 0 41 0;
#X connect 60 0 56 0;
#X connect 61 0 32 0;
#X connect 61 0 23 0;
#X connect 62 0 79 0;
#X connect 62 0 13 0;
#X connect 63 0 31 0;
#X connect 63 0 18 0;
#X connect 65 0 26 0;
#X connect 66 0 29 0;
#X connect 67 0 33 0;
#X connect 68 0 3 0;
#X connect 69 0 1 1;
#X connect 70 0 1 2;
#X connect 71 0 1 3;
#X connect 72 0 69 0;
#X connect 73 0 74 0;
#X connect 74 0 72 0;
#X connect 74 0 75 0;
#X connect 74 0 76 0;
#X connect 75 0 70 0;
#X connect 76 0 71 0;
#X connect 77 0 50 0;
#X connect 78 0 5 0;
#X connect 79 0 26 1;
