#N canvas 0 0 1438 797 12;
#X obj 9 405 lop~ 80;
#X obj 10 431 lop~ 80;
#X obj 10 460 expr~ tanh($v1 * $v2);
#X obj 9 564 expr~ tanh($v1 * $v2);
#X obj 155 433 sig~;
#X floatatom 237 407 5 0 0 0 - - - 0;
#X obj 236 355 loadbang;
#X obj 8 377 *~;
#X obj 80 193 b;
#X obj 80 247 vline~;
#X obj 9 142 mtof;
#X obj 154 537 sig~;
#X floatatom 154 510 5 0 0 0 - - - 0;
#X msg 237 381 5.9;
#X obj 9 193 osc~;
#X obj 9 17 inlet;
#X obj 10 592 outlet~;
#X text 59 16 heavy bass;
#X msg 80 220 0 \, 1 1 0 \, 0 69 10;
#X connect 0 0 1 0;
#X connect 1 0 2 0;
#X connect 2 0 3 0;
#X connect 3 0 16 0;
#X connect 4 0 2 1;
#X connect 5 0 4 0;
#X connect 6 0 13 0;
#X connect 7 0 0 0;
#X connect 8 0 18 0;
#X connect 9 0 7 1;
#X connect 10 0 8 0;
#X connect 10 0 14 0;
#X connect 11 0 3 1;
#X connect 12 0 11 0;
#X connect 13 0 5 0;
#X connect 13 0 12 0;
#X connect 14 0 7 0;
#X connect 15 0 10 0;
#X connect 18 0 9 0;
